<svg width="10" height="11" viewBox="0 0 10 11" fill="none" xmlns="http://www.w3.org/2000/svg">
<path d="M4.99938 0.625C3.64031 0.625 3.47094 0.631508 2.93906 0.65382C2.405 0.679852 2.04375 0.761974 1.725 0.884693C1.39139 1.00959 1.08927 1.20513 0.839688 1.45769C0.584295 1.70461 0.386999 2.00439 0.261875 2.33562C0.138125 2.65172 0.0553125 3.00996 0.0290625 3.53957C0.005 4.06732 0 4.23498 0 5.58271C0 6.93045 0.0065625 7.09841 0.0290625 7.62586C0.0553125 8.15392 0.138125 8.51371 0.261875 8.8298C0.387819 9.16063 0.585005 9.46023 0.839688 9.70774C1.08869 9.961 1.39098 10.1567 1.725 10.2807C2.04375 10.4019 2.40656 10.4856 2.93906 10.5116C3.47125 10.5355 3.64031 10.5404 4.99938 10.5404C6.35844 10.5404 6.52781 10.5339 7.05969 10.5116C7.59219 10.4856 7.955 10.4016 8.27375 10.2807C8.60736 10.1558 8.90948 9.9603 9.15906 9.70774C9.41479 9.46108 9.61213 9.16123 9.73688 8.8298C9.85906 8.51371 9.94344 8.15392 9.96969 7.62586C9.99375 7.0981 9.99875 6.93045 9.99875 5.58271C9.99875 4.23498 9.99219 4.06701 9.96969 3.53957C9.94344 3.01151 9.85875 2.64986 9.73688 2.33562C9.61093 2.0048 9.41375 1.70519 9.15906 1.45769C8.91033 1.2041 8.60796 1.0084 8.27375 0.884693C7.955 0.761974 7.59219 0.679852 7.05969 0.65382C6.5275 0.629958 6.35844 0.625 4.99938 0.625ZM4.99938 1.5175C6.33406 1.5175 6.49344 1.52401 7.02094 1.54632C7.5075 1.56894 7.7725 1.64952 7.94844 1.71769C8.16595 1.79731 8.36281 1.92404 8.52469 2.08864C8.69039 2.24849 8.8177 2.44327 8.89719 2.65854C8.96594 2.83301 9.04719 3.0958 9.07 3.57831C9.0925 4.10141 9.09906 4.25977 9.09906 5.58302C9.09906 6.90628 9.0925 7.06464 9.06813 7.58774C9.04188 8.07025 8.96063 8.33304 8.89219 8.50751C8.7975 8.74024 8.69188 8.90294 8.5175 9.07896C8.35507 9.24253 8.15834 9.36864 7.94125 9.44835C7.7675 9.51653 7.49875 9.5971 7.01031 9.61973C6.48 9.64204 6.32375 9.64855 4.98563 9.64855C3.6475 9.64855 3.49156 9.64204 2.96063 9.61787C2.47406 9.59184 2.20563 9.51126 2.02969 9.44339C1.79219 9.3495 1.62938 9.24475 1.455 9.07183C1.27906 8.89736 1.16719 8.73125 1.08094 8.50038C1.01094 8.32808 0.930938 8.06157 0.905 7.5772C0.887188 7.05751 0.87875 6.89636 0.87875 5.57559C0.87875 4.25543 0.887188 4.09397 0.905 3.56777C0.930938 3.0834 1.01094 2.81751 1.08094 2.64459C1.16719 2.40876 1.27938 2.24761 1.455 2.07314C1.62906 1.90053 1.79219 1.78897 2.02969 1.70158C2.20563 1.63371 2.4675 1.55314 2.95594 1.52897C3.48625 1.51006 3.6425 1.50324 4.97875 1.50324L4.99938 1.5175ZM4.99938 3.03816C4.66229 3.03804 4.32849 3.10379 4.01705 3.23165C3.7056 3.35951 3.42262 3.54699 3.18427 3.78335C2.94591 4.01972 2.75687 4.30034 2.62793 4.60919C2.49899 4.91804 2.43269 5.24906 2.43281 5.58333C2.43269 5.9176 2.49899 6.24862 2.62793 6.55747C2.75687 6.86632 2.94591 7.14695 3.18427 7.38332C3.42262 7.61968 3.7056 7.80715 4.01705 7.93502C4.32849 8.06288 4.66229 8.12863 4.99938 8.12851C5.33646 8.12863 5.67026 8.06288 5.9817 7.93502C6.29315 7.80715 6.57613 7.61968 6.81448 7.38332C7.05284 7.14695 7.24188 6.86632 7.37082 6.55747C7.49976 6.24862 7.56606 5.9176 7.56594 5.58333C7.56606 5.24906 7.49976 4.91804 7.37082 4.60919C7.24188 4.30034 7.05284 4.01972 6.81448 3.78335C6.57613 3.54699 6.29315 3.35951 5.9817 3.23165C5.67026 3.10379 5.33646 3.03804 4.99938 3.03816ZM4.99938 7.23601C4.07813 7.23601 3.33281 6.49691 3.33281 5.58333C3.33281 4.66976 4.07813 3.93066 4.99938 3.93066C5.92063 3.93066 6.66594 4.66976 6.66594 5.58333C6.66594 6.49691 5.92063 7.23601 4.99938 7.23601ZM8.26938 2.93651C8.26921 3.09446 8.20582 3.24587 8.09314 3.3575C7.98046 3.46912 7.82771 3.53182 7.66844 3.53182C7.58969 3.53182 7.5117 3.51644 7.43895 3.48655C7.36619 3.45667 7.30008 3.41286 7.2444 3.35764C7.18871 3.30242 7.14454 3.23686 7.1144 3.16471C7.08426 3.09256 7.06875 3.01523 7.06875 2.93713C7.06875 2.85904 7.08426 2.78171 7.1144 2.70955C7.14454 2.6374 7.18871 2.57185 7.2444 2.51662C7.30008 2.4614 7.36619 2.4176 7.43895 2.38771C7.5117 2.35782 7.58969 2.34244 7.66844 2.34244C7.99875 2.34244 8.26938 2.60895 8.26938 2.93651Z" fill="#AC0E28"/>
</svg>
