<svg width="10" height="11" viewBox="0 0 10 11" fill="none" xmlns="http://www.w3.org/2000/svg">
<path d="M8.85547 0.625H0.519531C0.382059 0.62609 0.250507 0.684826 0.153297 0.788517C0.0560865 0.892208 0.00102214 1.03253 0 1.17917V10.0708C0.00102214 10.2175 0.0560865 10.3578 0.153297 10.4615C0.250507 10.5652 0.382059 10.6239 0.519531 10.625H5.00781V6.75833H3.78906V5.24583H5.00781V4.13333C5.00781 2.84167 5.74609 2.1375 6.83203 2.1375C7.19531 2.1375 7.55859 2.1375 7.92188 2.19583V3.54167H7.17578C6.58594 3.54167 6.47266 3.84167 6.47266 4.27917V5.24167H7.87891L7.69531 6.75417H6.47266V10.625H8.85547C8.99294 10.6239 9.12449 10.5652 9.2217 10.4615C9.31891 10.3578 9.37398 10.2175 9.375 10.0708V1.17917C9.37398 1.03253 9.31891 0.892208 9.2217 0.788517C9.12449 0.684826 8.99294 0.62609 8.85547 0.625Z" fill="#AC0E28"/>
</svg>
