<svg width="32" height="32" viewBox="0 0 32 32" fill="none" xmlns="http://www.w3.org/2000/svg">
<path d="M15.998 0C11.649 0 11.107 0.020825 9.405 0.092225C7.696 0.175525 6.54 0.438317 5.52 0.831017C4.45246 1.23068 3.48566 1.85642 2.687 2.66461C1.86974 3.45477 1.2384 4.41404 0.838 5.474C0.442 6.4855 0.177 7.63187 0.093 9.32662C0.016 11.0154 0 11.5519 0 15.8647C0 20.1774 0.021 20.7149 0.093 22.4027C0.177 24.0925 0.442 25.2439 0.838 26.2554C1.24102 27.314 1.87202 28.2728 2.687 29.0648C3.4838 29.8752 4.45113 30.5013 5.52 30.8984C6.54 31.2861 7.701 31.5538 9.405 31.6371C11.108 31.7135 11.649 31.7294 15.998 31.7294C20.347 31.7294 20.889 31.7085 22.591 31.6371C24.295 31.5538 25.456 31.2851 26.476 30.8984C27.5435 30.4987 28.5103 29.873 29.309 29.0648C30.1273 28.2755 30.7588 27.3159 31.158 26.2554C31.549 25.2439 31.819 24.0925 31.903 22.4027C31.98 20.7139 31.996 20.1774 31.996 15.8647C31.996 11.5519 31.975 11.0144 31.903 9.32662C31.819 7.63682 31.548 6.47955 31.158 5.474C30.755 4.41536 30.124 3.45662 29.309 2.66461C28.5131 1.85312 27.5455 1.22687 26.476 0.831017C25.456 0.438317 24.295 0.175525 22.591 0.092225C20.888 0.0158667 20.347 0 15.998 0ZM15.998 2.856C20.269 2.856 20.779 2.87683 22.467 2.94823C24.024 3.02062 24.872 3.27845 25.435 3.49662C26.131 3.7514 26.761 4.15692 27.279 4.68364C27.8092 5.19517 28.2166 5.81845 28.471 6.50732C28.691 7.06562 28.951 7.90656 29.024 9.45058C29.096 11.1245 29.117 11.6313 29.117 15.8657C29.117 20.1001 29.096 20.6068 29.018 22.2808C28.934 23.8248 28.674 24.6657 28.455 25.224C28.152 25.9688 27.814 26.4894 27.256 27.0527C26.7362 27.5761 26.1067 27.9797 25.412 28.2347C24.856 28.4529 23.996 28.7107 22.433 28.7831C20.736 28.8545 20.236 28.8754 15.954 28.8754C11.672 28.8754 11.173 28.8545 9.474 28.7772C7.917 28.6939 7.058 28.436 6.495 28.2189C5.735 27.9184 5.214 27.5832 4.656 27.0299C4.093 26.4715 3.735 25.94 3.459 25.2012C3.235 24.6499 2.979 23.797 2.896 22.247C2.839 20.584 2.812 20.0684 2.812 15.8419C2.812 11.6174 2.839 11.1007 2.896 9.41687C2.979 7.86689 3.235 7.01604 3.459 6.46269C3.735 5.70803 4.094 5.19237 4.656 4.63406C5.213 4.0817 5.735 3.7247 6.495 3.44505C7.058 3.22787 7.896 2.97004 9.459 2.89269C11.156 2.8322 11.656 2.81038 15.932 2.81038L15.998 2.856ZM15.998 7.72211C14.9193 7.72172 13.8512 7.93212 12.8546 8.34128C11.8579 8.75044 10.9524 9.35035 10.1897 10.1067C9.42693 10.8631 8.82198 11.7611 8.40938 12.7494C7.99677 13.7377 7.78461 14.797 7.785 15.8667C7.78461 16.9363 7.99677 17.9956 8.40938 18.9839C8.82198 19.9722 9.42693 20.8702 10.1897 21.6266C10.9524 22.383 11.8579 22.9829 12.8546 23.3921C13.8512 23.8012 14.9193 24.0116 15.998 24.0112C17.0767 24.0116 18.1448 23.8012 19.1414 23.3921C20.1381 22.9829 21.0436 22.383 21.8063 21.6266C22.5691 20.8702 23.174 19.9722 23.5866 18.9839C23.9992 17.9956 24.2114 16.9363 24.211 15.8667C24.2114 14.797 23.9992 13.7377 23.5866 12.7494C23.174 11.7611 22.5691 10.8631 21.8063 10.1067C21.0436 9.35035 20.1381 8.75044 19.1414 8.34128C18.1448 7.93212 17.0767 7.72172 15.998 7.72211ZM15.998 21.1552C13.05 21.1552 10.665 18.7901 10.665 15.8667C10.665 12.9432 13.05 10.5781 15.998 10.5781C18.946 10.5781 21.331 12.9432 21.331 15.8667C21.331 18.7901 18.946 21.1552 15.998 21.1552ZM26.462 7.39684C26.4615 7.90226 26.2586 8.3868 25.8981 8.74399C25.5375 9.10119 25.0487 9.30183 24.539 9.30183C24.287 9.30183 24.0375 9.25261 23.8046 9.15698C23.5718 9.06134 23.3603 8.92117 23.1821 8.74446C23.0039 8.56774 22.8625 8.35796 22.7661 8.12708C22.6696 7.89619 22.62 7.64873 22.62 7.39883C22.62 7.14892 22.6696 6.90146 22.7661 6.67058C22.8625 6.43969 23.0039 6.22991 23.1821 6.05319C23.3603 5.87648 23.5718 5.73631 23.8046 5.64067C24.0375 5.54504 24.287 5.49582 24.539 5.49582C25.596 5.49582 26.462 6.34865 26.462 7.39684Z" fill="#AC0E28"/>
</svg>
