<svg width="47" height="14" viewBox="0 0 47 14" fill="none" xmlns="http://www.w3.org/2000/svg">
<path d="M5.18465 13.9943C3.78435 13.948 2.63835 13.6275 1.74249 13.0327C1.57163 12.9192 1.16413 12.5784 1.02754 12.4346C0.66418 12.0529 0.417322 11.6812 0.252347 11.269C-0.254698 10 0.00652783 8.3347 0.998459 6.5069C1.84809 4.94228 3.15907 3.39054 5.4464 1.24125C5.7831 0.924968 6.78663 0 6.79286 0C6.79546 0 6.74093 0.079287 6.67203 0.175792C6.07722 1.00816 5.56844 1.98898 5.29111 2.8377C4.84587 4.20019 4.89954 5.36895 5.44847 6.27555C5.82707 6.9 6.47624 7.44098 7.20608 7.74004C8.48399 8.26337 10.3548 8.30663 12.6397 7.86664C12.7971 7.83626 20.5918 6.10684 29.9616 4.02339C39.3311 1.93993 46.9988 0.236414 47 0.238006C47.0026 0.239742 25.2314 8.02623 13.9296 12.0655C12.1396 12.705 11.6609 12.8665 10.8198 13.1135C8.6687 13.7447 6.74197 14.046 5.18465 13.9943Z" fill="#82041C"/>
</svg>
