<svg width="11" height="11" viewBox="0 0 11 11" fill="none" xmlns="http://www.w3.org/2000/svg">
<path d="M7.2225 0.625H4.15281C1.35156 0.625 0.6875 1.28906 0.6875 4.09031V7.16C0.6875 9.96125 1.35156 10.6253 4.15281 10.6253H7.2225C10.0238 10.6253 10.6878 9.96125 10.6878 7.16V4.09031C10.6878 1.28906 10.0172 0.625 7.2225 0.625ZM8.76063 7.75875H8.03469C7.75969 7.75875 7.675 7.54062 7.18031 7.03937C6.75063 6.62281 6.56031 6.5675 6.45438 6.5675C6.30469 6.5675 6.26219 6.60969 6.26219 6.815V7.47094C6.26219 7.64687 6.20688 7.7525 5.74125 7.7525C4.97125 7.7525 4.11688 7.28687 3.51781 6.41937C2.61438 5.14813 2.36719 4.19594 2.36719 3.99906C2.36719 3.89313 2.40938 3.79406 2.61281 3.79406H3.34031C3.52438 3.79406 3.59438 3.87875 3.66594 4.07562C4.02563 5.11406 4.62469 6.02375 4.87188 6.02375C4.96313 6.02375 5.00531 5.98156 5.00531 5.74875V4.67625C4.9775 4.18156 4.71719 4.13906 4.71719 3.96344C4.71719 3.87875 4.78719 3.79406 4.89938 3.79406H6.04344C6.19813 3.79406 6.255 3.87875 6.255 4.06094V5.50781C6.255 5.66406 6.325 5.71938 6.36719 5.71938C6.45844 5.71938 6.53656 5.66406 6.70563 5.49469C7.22813 4.90875 7.6025 4.00531 7.6025 4.00531C7.65125 3.89938 7.73594 3.80031 7.92 3.80031H8.6475C8.86563 3.80031 8.91438 3.9125 8.86563 4.06875C8.77438 4.49188 7.88406 5.74844 7.88406 5.74844C7.8075 5.87531 7.77813 5.93062 7.88406 6.07219C7.96219 6.17812 8.21625 6.39781 8.38531 6.59469C8.69625 6.94781 8.93531 7.24406 8.99906 7.44906C9.07063 7.6525 8.965 7.75844 8.75969 7.75844L8.76063 7.75875Z" fill="#AC0E28"/>
</svg>
